<svg width="56" height="56" viewBox="0 0 56 56" fill="none" xmlns="http://www.w3.org/2000/svg">
<path d="M50.5 17.6298C51.8261 17.6298 53.0979 18.1566 54.0355 19.0943C54.9732 20.032 55.5 21.3039 55.5 22.63V32.6305C55.5 33.9566 54.9732 35.2285 54.0355 36.1662C53.0979 37.1039 51.8261 37.6307 50.5 37.6307H47.845C47.2355 42.4642 44.8832 46.9091 41.2294 50.1313C37.5756 53.3535 32.8715 55.1315 28 55.1316V50.1313C31.9782 50.1313 35.7936 48.5509 38.6066 45.7377C41.4197 42.9246 43 39.1091 43 35.1306V20.1299C43 16.1514 41.4197 12.3359 38.6066 9.52276C35.7936 6.70958 31.9782 5.12915 28 5.12915C24.0218 5.12915 20.2064 6.70958 17.3934 9.52276C14.5804 12.3359 13 16.1514 13 20.1299V37.6307H5.5C4.17392 37.6307 2.90215 37.1039 1.96447 36.1662C1.02678 35.2285 0.5 33.9566 0.5 32.6305V22.63C0.5 21.3039 1.02678 20.032 1.96447 19.0943C2.90215 18.1566 4.17392 17.6298 5.5 17.6298H8.155C8.76508 12.7968 11.1177 8.35248 14.7714 5.13084C18.4252 1.90919 23.1289 0.131592 28 0.131592C32.8711 0.131592 37.5748 1.90919 41.2286 5.13084C44.8823 8.35248 47.2349 12.7968 47.845 17.6298H50.5ZM17.4 37.0932L20.05 32.853C22.4327 34.3457 25.1884 35.1352 28 35.1306C30.8116 35.1352 33.5673 34.3457 35.95 32.853L38.6 37.0932C35.4231 39.0837 31.7489 40.1366 28 40.1309C24.2511 40.1368 20.5768 39.0838 17.4 37.0932Z" fill="white"/>
</svg>
