<svg width="1440" height="716" viewBox="0 0 1440 716" fill="none" xmlns="http://www.w3.org/2000/svg">
<g opacity="0.17">
<path d="M1678.4 1C1512.15 26.1483 1251.51 77.0422 1384.11 237.701C1552.85 442.151 1965.21 388.591 1782.06 546.392" stroke="white" stroke-width="2"/>
<path d="M1631.99 38.1099C1465.74 63.2582 1205.1 114.152 1337.7 274.811C1506.44 479.261 1918.8 425.701 1735.65 583.502" stroke="white" stroke-width="2"/>
<path d="M1583.38 72.2809C1417.13 97.4292 1156.49 148.323 1289.09 308.982C1457.83 513.432 1870.18 459.872 1687.04 617.673" stroke="white" stroke-width="2"/>
<path d="M1532.32 102.682C1366.08 127.83 1105.43 178.724 1238.03 339.383C1406.77 543.833 1819.13 490.273 1635.99 648.074" stroke="white" stroke-width="2"/>
<path d="M1478.72 128.327C1312.47 153.475 1051.83 204.369 1184.43 365.028C1353.17 569.478 1765.53 515.918 1582.39 673.719" stroke="white" stroke-width="2"/>
<path d="M1422.73 148.22C1256.48 173.369 995.836 224.263 1128.44 384.922C1297.18 589.372 1709.54 535.811 1526.39 693.612" stroke="white" stroke-width="2"/>
<path d="M1364.85 161.661C1198.6 186.809 937.954 237.703 1070.55 398.362C1239.3 602.812 1651.65 549.252 1468.51 707.053" stroke="white" stroke-width="2"/>
<path d="M1305.83 168.586C1139.59 193.734 878.94 244.628 1011.54 405.287C1180.28 609.737 1592.64 556.177 1409.5 713.977" stroke="white" stroke-width="2"/>
<path d="M1246.42 169.682C1080.17 194.83 819.528 245.724 952.129 406.383C1120.87 610.833 1533.23 557.273 1350.09 715.074" stroke="white" stroke-width="2"/>
<path d="M1187.11 166.161C1020.86 191.309 760.212 242.203 892.813 402.862C1061.56 607.312 1473.91 553.752 1290.77 711.553" stroke="white" stroke-width="2"/>
<path d="M1128.07 159.387C961.824 184.535 701.179 235.429 833.779 396.088C1002.52 600.538 1414.88 546.978 1231.74 704.779" stroke="white" stroke-width="2"/>
<path d="M1069.3 150.612C903.054 175.76 642.408 226.654 775.008 387.313C943.752 591.763 1356.11 538.203 1172.97 696.004" stroke="white" stroke-width="2"/>
<path d="M1010.69 140.869C844.438 166.017 583.792 216.911 716.393 377.57C885.136 582.02 1297.49 528.46 1114.35 686.261" stroke="white" stroke-width="2"/>
<path d="M952.096 130.962C785.848 156.11 525.202 207.004 657.803 367.663C826.546 572.113 1238.9 518.553 1055.76 676.354" stroke="white" stroke-width="2"/>
<path d="M893.433 121.498C727.186 146.647 466.54 197.54 599.141 358.199C767.884 562.649 1180.24 509.089 997.098 666.89" stroke="white" stroke-width="2"/>
<path d="M834.635 112.922C668.387 138.07 407.742 188.964 540.342 349.623C709.085 554.073 1121.44 500.513 938.299 658.313" stroke="white" stroke-width="2"/>
<path d="M775.672 105.549C609.424 130.697 348.779 181.591 481.379 342.25C650.122 546.7 1062.48 493.14 879.336 650.94" stroke="white" stroke-width="2"/>
<path d="M716.552 99.5933C550.304 124.742 289.659 175.635 422.259 336.294C591.002 540.744 1003.36 487.184 820.216 644.985" stroke="white" stroke-width="2"/>
<path d="M656.928 95.1362C490.68 120.285 230.035 171.178 362.635 331.837C531.378 536.287 943.733 482.727 760.592 640.528" stroke="white" stroke-width="2"/>
<path d="M597.604 91.7053C431.357 116.854 170.711 167.748 303.312 328.407C472.055 532.856 884.41 479.296 701.269 637.097" stroke="white" stroke-width="2"/>
<path d="M538.24 89.1321C371.993 114.28 111.347 165.174 243.947 325.833C412.69 530.283 825.046 476.723 641.905 634.524" stroke="white" stroke-width="2"/>
<path d="M478.841 87.5332C312.593 112.682 51.9476 163.575 184.548 324.234C353.291 528.684 765.646 475.124 582.505 632.925" stroke="white" stroke-width="2"/>
<path d="M419.422 87.0565C253.174 112.205 -7.47134 163.099 125.129 323.758C293.872 528.208 706.228 474.648 523.086 632.448" stroke="white" stroke-width="2"/>
<path d="M360.007 87.8899C193.759 113.038 -66.8861 163.932 65.7141 324.591C234.457 529.041 646.813 475.481 463.672 633.282" stroke="white" stroke-width="2"/>
<path d="M300.634 90.2815C134.386 115.43 -126.259 166.324 6.34085 326.983C175.084 531.433 587.439 477.873 404.298 635.673" stroke="white" stroke-width="2"/>
<path d="M241.367 94.5656C75.1195 119.714 -185.526 170.608 -52.9258 331.267C115.817 535.717 528.173 482.157 345.032 639.957" stroke="white" stroke-width="2"/>
<path d="M182.317 101.212C16.0697 126.36 -244.576 177.254 -111.976 337.913C56.7676 542.363 469.123 488.803 285.982 646.604" stroke="white" stroke-width="2"/>
<path d="M123.688 110.9C-42.5592 136.048 -303.205 186.942 -170.604 347.601C-1.86127 552.051 410.494 498.491 227.353 656.292" stroke="white" stroke-width="2"/>
<path d="M65.8839 124.596C-100.364 149.745 -361.009 200.638 -228.409 361.298C-59.6657 565.747 352.69 512.187 169.549 669.988" stroke="white" stroke-width="2"/>
<path d="M9.77231 142.866C-156.475 168.014 -417.121 218.908 -284.52 379.567C-115.777 584.017 296.578 530.457 113.437 688.258" stroke="white" stroke-width="2"/>
</g>
</svg>
