<svg width="20" height="21" viewBox="0 0 20 21" fill="none" xmlns="http://www.w3.org/2000/svg">
<path d="M18.0916 17.4083L14.9999 14.3416C16.2 12.8453 16.7812 10.946 16.6239 9.03434C16.4667 7.12267 15.583 5.34391 14.1545 4.06379C12.7261 2.78368 10.8614 2.09951 8.94402 2.15198C7.02662 2.20445 5.20219 2.98956 3.84587 4.34587C2.48956 5.70219 1.70445 7.52662 1.65198 9.44402C1.59951 11.3614 2.28368 13.2261 3.56379 14.6545C4.84391 16.083 6.62267 16.9667 8.53434 17.1239C10.446 17.2812 12.3453 16.7 13.8416 15.4999L16.9083 18.5666C16.9857 18.6447 17.0779 18.7067 17.1794 18.749C17.281 18.7913 17.3899 18.8131 17.4999 18.8131C17.6099 18.8131 17.7189 18.7913 17.8204 18.749C17.9219 18.7067 18.0141 18.6447 18.0916 18.5666C18.2418 18.4112 18.3257 18.2035 18.3257 17.9874C18.3257 17.7713 18.2418 17.5636 18.0916 17.4083ZM9.16659 15.4999C8.01286 15.4999 6.88505 15.1578 5.92576 14.5168C4.96647 13.8759 4.2188 12.9648 3.77729 11.8989C3.33578 10.833 3.22026 9.66012 3.44534 8.52856C3.67042 7.39701 4.22599 6.3576 5.0418 5.5418C5.8576 4.72599 6.897 4.17042 8.02856 3.94534C9.16012 3.72026 10.333 3.83578 11.3989 4.27729C12.4648 4.7188 13.3759 5.46647 14.0168 6.42576C14.6578 7.38505 14.9999 8.51286 14.9999 9.66659C14.9999 11.2137 14.3853 12.6974 13.2914 13.7914C12.1974 14.8853 10.7137 15.4999 9.16659 15.4999Z" fill="#667479"/>
</svg>
