<svg width="58" height="59" viewBox="0 0 58 59" fill="none" xmlns="http://www.w3.org/2000/svg">
<path fill-rule="evenodd" clip-rule="evenodd" d="M28.8462 0.131592C22.6173 0.131592 17.7372 0.131592 13.9281 0.64415C10.0327 1.1675 6.9573 2.26275 4.54288 4.67448C2.12846 7.08889 1.03591 10.1642 0.512558 14.0624C1.78814e-07 17.8688 0 22.7489 0 28.9778V29.2854C0 35.5143 1.78814e-07 40.3944 0.512558 44.2035C1.03591 48.0989 2.13116 51.1743 4.54288 53.5887C6.9573 56.0031 10.0327 57.0957 13.9308 57.619C17.7372 58.1316 22.6173 58.1316 28.8462 58.1316H29.1538C35.3827 58.1316 40.2628 58.1316 44.0719 57.619C47.9673 57.0957 51.0427 56.0004 53.4571 53.5887C55.8715 51.1743 56.9641 48.0989 57.4874 44.2008C58 40.3944 58 35.5143 58 29.2854V28.9778C58 22.7489 58 17.8688 57.4874 14.0597C56.9641 10.1642 55.8688 7.08889 53.4571 4.67448C51.0427 2.26006 47.9674 1.1675 44.0692 0.64415C40.2628 0.131592 35.3827 0.131592 29.1538 0.131592H28.8462ZM26.9767 4.1781C21.5976 4.1835 17.5969 4.23206 14.4703 4.65289C11.02 5.11689 8.94009 6.00173 7.40242 7.53671C5.86744 9.07438 4.9853 11.1516 4.5213 14.6019C4.10316 17.7285 4.05191 21.7292 4.04651 27.1083H15.2796C14.3109 25.8982 13.6152 24.493 13.2402 22.989C11.7861 17.1809 17.0493 11.9177 22.8574 13.3718C24.3614 13.747 25.7665 14.4427 26.9767 15.4112V4.1781ZM4.04651 31.1548C4.05191 36.534 4.10047 40.5347 4.5213 43.6613C4.9853 47.1116 5.87014 49.1915 7.40512 50.7292C8.94279 52.2641 11.02 53.1463 14.4703 53.6103C17.5969 54.0284 21.5976 54.0797 26.9767 54.0851V34.8615C25.9123 36.9907 24.2758 38.7813 22.2507 40.0325C20.2257 41.2838 17.8921 41.9462 15.5116 41.9455C14.975 41.9455 14.4604 41.7324 14.081 41.3529C13.7015 40.9735 13.4884 40.4589 13.4884 39.9223C13.4884 39.3857 13.7015 38.8711 14.081 38.4916C14.4604 38.1122 14.975 37.899 15.5116 37.899C17.4853 37.899 19.4013 37.2332 20.9497 36.0094C22.4981 34.7855 23.5884 33.0751 24.0444 31.1548H23.6721H4.04651ZM31.0233 54.0851C36.4024 54.0797 40.4031 54.0311 43.5297 53.6103C46.98 53.1463 49.0599 52.2614 50.5976 50.7265C52.1326 49.1888 53.0147 47.1116 53.4787 43.6613C53.8968 40.5347 53.9481 36.534 53.9535 31.1548H33.9556C34.4116 33.0751 35.5019 34.7855 37.0503 36.0094C38.5987 37.2332 40.5147 37.899 42.4884 37.899C43.025 37.899 43.5396 38.1122 43.919 38.4916C44.2985 38.8711 44.5116 39.3857 44.5116 39.9223C44.5116 40.4589 44.2985 40.9735 43.919 41.3529C43.5396 41.7324 43.025 41.9455 42.4884 41.9455C40.1079 41.9462 37.7743 41.2838 35.7493 40.0325C33.7242 38.7813 32.0877 36.9907 31.0233 34.8615V54.0851ZM53.9535 27.1083H42.7204C43.6898 25.8983 44.3864 24.4932 44.7625 22.989C46.2139 17.1809 40.9507 11.9177 35.1453 13.3718C33.6403 13.7464 32.2342 14.4422 31.0233 15.4112V4.1781C36.4024 4.1835 40.4031 4.23206 43.5297 4.65289C46.98 5.11689 49.0599 6.00173 50.5976 7.53671C52.1326 9.07438 53.0147 11.1516 53.4787 14.6019C53.8968 17.7285 53.9481 21.7292 53.9535 27.1083ZM31.0233 27.1083V23.8172C31.0265 22.3176 31.53 20.8619 32.454 19.6809C33.3781 18.4998 34.6698 17.6608 36.1246 17.2969C36.7752 17.1344 37.4569 17.1431 38.1032 17.3222C38.7495 17.5013 39.3384 17.8447 39.8127 18.3189C40.2869 18.7932 40.6303 19.3821 40.8094 20.0284C40.9885 20.6747 40.9972 21.3564 40.8347 22.007C40.471 23.4609 39.6328 24.752 38.4529 25.6759C37.2729 26.5999 35.8185 27.1039 34.3198 27.1083H31.0233ZM26.9767 23.8091C26.9717 22.3109 26.4674 20.8571 25.5435 19.6777C24.6196 18.4982 23.3289 17.6605 21.8754 17.2969C21.2248 17.1344 20.5431 17.1431 19.8968 17.3222C19.2505 17.5013 18.6616 17.8447 18.1873 18.3189C17.7131 18.7932 17.3697 19.3821 17.1906 20.0284C17.0115 20.6747 17.0028 21.3564 17.1653 22.007C17.529 23.4609 18.3672 24.752 19.5471 25.6759C20.7271 26.5999 22.1815 27.1039 23.6802 27.1083H26.9767V23.8091Z" fill="white"/>
</svg>
